<svg width="30" height="40" viewBox="0 0 30 40" fill="none" xmlns="http://www.w3.org/2000/svg">
<g filter="url(#filter0_d)">
<path d="M15 0C8.93471 0 4 4.78519 4 10.6667C4 12.4323 4.45523 14.1829 5.32064 15.7357L14.3985 31.6562C14.5193 31.8685 14.7496 32 15 32C15.2504 32 15.4807 31.8685 15.6015 31.6562L24.6827 15.7304C25.5448 14.1829 26 12.4323 26 10.6666C26 4.78519 21.0653 0 15 0ZM23.4762 15.0905L15 29.9557L6.52714 15.0964C5.77317 13.7435 5.37504 12.2116 5.37504 10.6667C5.37504 5.52019 9.69275 1.33337 15 1.33337C20.3073 1.33337 24.625 5.52025 24.625 10.6667C24.625 12.2116 24.2268 13.7435 23.4762 15.0905Z" fill="#F1CDB3"/>
<path d="M15 5.33329C11.9674 5.33329 9.50005 7.72586 9.50005 10.6666C9.50005 13.6074 11.9674 16 15 16C18.0327 16 20.5 13.6074 20.5 10.6667C20.5 7.72592 18.0327 5.33329 15 5.33329ZM15 14.6667C12.7253 14.6667 10.875 12.8724 10.875 10.6667C10.875 8.46092 12.7253 6.66667 15 6.66667C17.2747 6.66667 19.125 8.46092 19.125 10.6667C19.125 12.8724 17.2747 14.6667 15 14.6667Z" fill="#F1CDB3"/>
</g>
<defs>
<filter id="filter0_d" x="0" y="0" width="30" height="40" filterUnits="userSpaceOnUse" color-interpolation-filters="sRGB">
<feFlood flood-opacity="0" result="BackgroundImageFix"/>
<feColorMatrix in="SourceAlpha" type="matrix" values="0 0 0 0 0 0 0 0 0 0 0 0 0 0 0 0 0 0 127 0" result="hardAlpha"/>
<feOffset dy="4"/>
<feGaussianBlur stdDeviation="2"/>
<feComposite in2="hardAlpha" operator="out"/>
<feColorMatrix type="matrix" values="0 0 0 0 0 0 0 0 0 0 0 0 0 0 0 0 0 0 0.25 0"/>
<feBlend mode="normal" in2="BackgroundImageFix" result="effect1_dropShadow"/>
<feBlend mode="normal" in="SourceGraphic" in2="effect1_dropShadow" result="shape"/>
</filter>
</defs>
</svg>
